<svg xmlns="http://www.w3.org/2000/svg" width="920" height="600" viewBox="0 0 920 600">
<style>text{font-family:"Microsoft YaHei","SimHei","Arial Unicode MS",sans-serif;fill:#222} .small{font-size:12px} .tick{font-size:11px;fill:#555} .title{font-size:22px;font-weight:700} .label{font-size:14px} .legend{font-size:13px}</style>
<rect width="100%" height="100%" fill="white"/>
<text x="460.0" y="38" text-anchor="middle" class="title">北京动物园内部/外部POI构成</text>
<line x1="70" y1="520" x2="880" y2="520" stroke="#333" stroke-width="1.4"/>
<line x1="70" y1="70" x2="70" y2="520" stroke="#333" stroke-width="1.4"/>
<line x1="70" y1="520.0" x2="880" y2="520.0" stroke="#ddd" stroke-width="1"/>
<text x="60" y="524.0" text-anchor="end" class="tick">0</text>
<line x1="70" y1="430.0" x2="880" y2="430.0" stroke="#ddd" stroke-width="1"/>
<text x="60" y="434.0" text-anchor="end" class="tick">97.4</text>
<line x1="70" y1="340.0" x2="880" y2="340.0" stroke="#ddd" stroke-width="1"/>
<text x="60" y="344.0" text-anchor="end" class="tick">194.8</text>
<line x1="70" y1="249.99999999999994" x2="880" y2="249.99999999999994" stroke="#ddd" stroke-width="1"/>
<text x="60" y="253.99999999999994" text-anchor="end" class="tick">292.2</text>
<line x1="70" y1="160.0" x2="880" y2="160.0" stroke="#ddd" stroke-width="1"/>
<text x="60" y="164.0" text-anchor="end" class="tick">389.6</text>
<line x1="70" y1="70.0" x2="880" y2="70.0" stroke="#ddd" stroke-width="1"/>
<text x="60" y="74.0" text-anchor="end" class="tick">487</text>
<rect x="107.5" y="519.0759753593429" width="26" height="0.9240246406570805" fill="#2E86AB"/>
<rect x="141.5" y="70.0" width="26" height="450.0" fill="#D1495B"/>
<text x="137.5" y="544" text-anchor="middle" class="tick">交通</text>
<rect x="242.5" y="519.0759753593429" width="26" height="0.9240246406570805" fill="#2E86AB"/>
<rect x="276.5" y="479.3429158110883" width="26" height="40.65708418891171" fill="#D1495B"/>
<text x="272.5" y="544" text-anchor="middle" class="tick">停车</text>
<rect x="377.5" y="515.3798767967146" width="26" height="4.620123203285402" fill="#2E86AB"/>
<rect x="411.5" y="408.1930184804928" width="26" height="111.80698151950719" fill="#D1495B"/>
<text x="407.5" y="544" text-anchor="middle" class="tick">餐饮零售</text>
<rect x="512.5" y="520.0" width="26" height="0.0" fill="#2E86AB"/>
<rect x="546.5" y="509.83572895277206" width="26" height="10.164271047227942" fill="#D1495B"/>
<text x="542.5" y="544" text-anchor="middle" class="tick">商业</text>
<rect x="647.5" y="515.3798767967146" width="26" height="4.620123203285402" fill="#2E86AB"/>
<rect x="681.5" y="443.305954825462" width="26" height="76.69404517453802" fill="#D1495B"/>
<text x="677.5" y="544" text-anchor="middle" class="tick">公共服务</text>
<rect x="782.5" y="515.3798767967146" width="26" height="4.620123203285402" fill="#2E86AB"/>
<rect x="816.5" y="507.0636550308008" width="26" height="12.936344969199183" fill="#D1495B"/>
<text x="812.5" y="544" text-anchor="middle" class="tick">周边吸引物</text>
<rect x="760" y="100" width="14" height="14" fill="#2E86AB"/>
<text x="782" y="112" class="legend">内部</text>
<rect x="760" y="126" width="14" height="14" fill="#D1495B"/>
<text x="782" y="138" class="legend">外部</text>
</svg>